<svg width="21" height="17" viewBox="0 0 21 17" fill="none" xmlns="http://www.w3.org/2000/svg">
<path d="M8.5 8C7.4 8 6.45833 7.60833 5.675 6.825C4.89167 6.04167 4.5 5.1 4.5 4C4.5 2.9 4.89167 1.95833 5.675 1.175C6.45833 0.391667 7.4 0 8.5 0C9.6 0 10.5417 0.391667 11.325 1.175C12.1083 1.95833 12.5 2.9 12.5 4C12.5 5.1 12.1083 6.04167 11.325 6.825C10.5417 7.60833 9.6 8 8.5 8ZM0.5 16V13.2C0.5 12.65 0.641667 12.1333 0.925 11.65C1.20833 11.1667 1.6 10.8 2.1 10.55C2.95 10.1167 3.90833 9.75 4.975 9.45C6.04167 9.15 7.21667 9 8.5 9H8.85C8.95 9 9.05 9.01667 9.15 9.05C9.01667 9.35 8.904 9.66267 8.812 9.988C8.72067 10.3127 8.65 10.65 8.6 11H8.5C7.31667 11 6.254 11.15 5.312 11.45C4.37067 11.75 3.6 12.05 3 12.35C2.85 12.4333 2.72933 12.55 2.638 12.7C2.546 12.85 2.5 13.0167 2.5 13.2V14H8.8C8.9 14.35 9.03333 14.696 9.2 15.038C9.36667 15.3793 9.55 15.7 9.75 16H0.5ZM14.5 17L14.2 15.5C14 15.4167 13.8123 15.3293 13.637 15.238C13.4623 15.146 13.2833 15.0333 13.1 14.9L11.65 15.35L10.65 13.65L11.8 12.65C11.7667 12.4167 11.75 12.2 11.75 12C11.75 11.8 11.7667 11.5833 11.8 11.35L10.65 10.35L11.65 8.65L13.1 9.1C13.2833 8.96667 13.4623 8.854 13.637 8.762C13.8123 8.67067 14 8.58333 14.2 8.5L14.5 7H16.5L16.8 8.5C17 8.58333 17.1877 8.675 17.363 8.775C17.5377 8.875 17.7167 9 17.9 9.15L19.35 8.65L20.35 10.4L19.2 11.4C19.2333 11.6 19.25 11.8083 19.25 12.025C19.25 12.2417 19.2333 12.45 19.2 12.65L20.35 13.65L19.35 15.35L17.9 14.9C17.7167 15.0333 17.5377 15.146 17.363 15.238C17.1877 15.3293 17 15.4167 16.8 15.5L16.5 17H14.5ZM15.5 14C16.05 14 16.521 13.8043 16.913 13.413C17.3043 13.021 17.5 12.55 17.5 12C17.5 11.45 17.3043 10.979 16.913 10.587C16.521 10.1957 16.05 10 15.5 10C14.95 10 14.4793 10.1957 14.088 10.587C13.696 10.979 13.5 11.45 13.5 12C13.5 12.55 13.696 13.021 14.088 13.413C14.4793 13.8043 14.95 14 15.5 14ZM8.5 6C9.05 6 9.521 5.804 9.913 5.412C10.3043 5.02067 10.5 4.55 10.5 4C10.5 3.45 10.3043 2.97933 9.913 2.588C9.521 2.196 9.05 2 8.5 2C7.95 2 7.47933 2.196 7.088 2.588C6.696 2.97933 6.5 3.45 6.5 4C6.5 4.55 6.696 5.02067 7.088 5.412C7.47933 5.804 7.95 6 8.5 6Z" fill="#1C1B1F"/>
</svg>
