<svg width="24" height="24" viewBox="0 0 24 24" fill="none" xmlns="http://www.w3.org/2000/svg">
<path d="M10.775 20.6501H4.5C4.1 20.6501 3.75 20.5001 3.45 20.2001C3.15 19.9001 3 19.5501 3 19.1501V4.6001C3 4.2001 3.12917 3.8501 3.3875 3.5501C3.64583 3.2501 3.86667 3.1001 4.05 3.1001H9.1C9.21667 2.51676 9.50417 2.0376 9.9625 1.6626C10.4208 1.2876 10.95 1.1001 11.55 1.1001C12.15 1.1001 12.6792 1.2876 13.1375 1.6626C13.5958 2.0376 13.8833 2.51676 14 3.1001H19.05C19.45 3.1001 19.8 3.2501 20.1 3.5501C20.4 3.8501 20.55 4.2001 20.55 4.6001V9.6751H19.05V4.6001H16.4V7.8501H7.15V4.6001H4.5V19.1501H10.775V20.6501ZM15.5 20.0251L11.5 16.0251L12.575 14.9501L15.5 17.8751L21.475 11.9001L22.55 12.9751L15.5 20.0251ZM12 4.5001C12.2833 4.5001 12.5208 4.40426 12.7125 4.2126C12.9042 4.02093 13 3.78343 13 3.5001C13 3.21676 12.9042 2.97926 12.7125 2.7876C12.5208 2.59593 12.2833 2.5001 12 2.5001C11.7167 2.5001 11.4792 2.59593 11.2875 2.7876C11.0958 2.97926 11 3.21676 11 3.5001C11 3.78343 11.0958 4.02093 11.2875 4.2126C11.4792 4.40426 11.7167 4.5001 12 4.5001Z" fill="#54DFFF"/>
</svg>
