<svg width="20" height="17" viewBox="0 0 20 17" fill="none" xmlns="http://www.w3.org/2000/svg">
<path d="M8 7.875C6.9 7.875 6 7.525 5.3 6.825C4.6 6.125 4.25 5.225 4.25 4.125C4.25 3.025 4.6 2.125 5.3 1.425C6 0.725 6.9 0.375 8 0.375C9.1 0.375 10 0.725 10.7 1.425C11.4 2.125 11.75 3.025 11.75 4.125C11.75 5.225 11.4 6.125 10.7 6.825C10 7.525 9.1 7.875 8 7.875ZM0 15.9V13.55C0 12.9667 0.145833 12.4417 0.4375 11.975C0.729167 11.5083 1.15 11.15 1.7 10.9C2.9 10.3667 4.0125 9.98333 5.0375 9.75C6.0625 9.51667 7.05 9.4 8 9.4H8.575C8.475 9.63333 8.4 9.8625 8.35 10.0875C8.3 10.3125 8.25833 10.5833 8.225 10.9H8C7.03333 10.9 6.0875 11.0042 5.1625 11.2125C4.2375 11.4208 3.28333 11.7667 2.3 12.25C2.03333 12.3833 1.83333 12.5708 1.7 12.8125C1.56667 13.0542 1.5 13.3 1.5 13.55V14.4H8.225C8.30833 14.7 8.40833 14.9708 8.525 15.2125C8.64167 15.4542 8.78333 15.6833 8.95 15.9H0ZM14.675 17L14.425 15.35C14.1417 15.2667 13.8542 15.1458 13.5625 14.9875C13.2708 14.8292 13.025 14.65 12.825 14.45L11.45 14.75L10.825 13.7L12 12.6C11.9667 12.45 11.95 12.2417 11.95 11.975C11.95 11.7083 11.9667 11.5 12 11.35L10.825 10.25L11.45 9.2L12.825 9.5C13.025 9.3 13.2708 9.12083 13.5625 8.9625C13.8542 8.80417 14.1417 8.68333 14.425 8.6L14.675 6.95H16.025L16.275 8.6C16.5583 8.68333 16.8458 8.80417 17.1375 8.9625C17.4292 9.12083 17.675 9.3 17.875 9.5L19.25 9.2L19.875 10.25L18.7 11.35C18.7333 11.5 18.75 11.7083 18.75 11.975C18.75 12.2417 18.7333 12.45 18.7 12.6L19.875 13.7L19.25 14.75L17.875 14.45C17.675 14.65 17.4292 14.8292 17.1375 14.9875C16.8458 15.1458 16.5583 15.2667 16.275 15.35L16.025 17H14.675ZM15.35 13.975C15.95 13.975 16.4333 13.7917 16.8 13.425C17.1667 13.0583 17.35 12.575 17.35 11.975C17.35 11.375 17.1667 10.8917 16.8 10.525C16.4333 10.1583 15.95 9.975 15.35 9.975C14.75 9.975 14.2667 10.1583 13.9 10.525C13.5333 10.8917 13.35 11.375 13.35 11.975C13.35 12.575 13.5333 13.0583 13.9 13.425C14.2667 13.7917 14.75 13.975 15.35 13.975ZM8 6.375C8.65 6.375 9.1875 6.1625 9.6125 5.7375C10.0375 5.3125 10.25 4.775 10.25 4.125C10.25 3.475 10.0375 2.9375 9.6125 2.5125C9.1875 2.0875 8.65 1.875 8 1.875C7.35 1.875 6.8125 2.0875 6.3875 2.5125C5.9625 2.9375 5.75 3.475 5.75 4.125C5.75 4.775 5.9625 5.3125 6.3875 5.7375C6.8125 6.1625 7.35 6.375 8 6.375Z" fill="#00115A"/>
</svg>
