<svg width="20" height="20" viewBox="0 0 20 20" fill="none" xmlns="http://www.w3.org/2000/svg">
<path d="M7.775 19.6501H1.5C1.1 19.6501 0.75 19.5001 0.45 19.2001C0.15 18.9001 0 18.5501 0 18.1501V3.6001C0 3.2001 0.129167 2.8501 0.3875 2.5501C0.645833 2.2501 0.866667 2.1001 1.05 2.1001H6.1C6.21667 1.51676 6.50417 1.0376 6.9625 0.662598C7.42083 0.287598 7.95 0.100098 8.55 0.100098C9.15 0.100098 9.67917 0.287598 10.1375 0.662598C10.5958 1.0376 10.8833 1.51676 11 2.1001H16.05C16.45 2.1001 16.8 2.2501 17.1 2.5501C17.4 2.8501 17.55 3.2001 17.55 3.6001V8.6751H16.05V3.6001H13.4V6.8501H4.15V3.6001H1.5V18.1501H7.775V19.6501ZM12.5 19.0251L8.5 15.0251L9.575 13.9501L12.5 16.8751L18.475 10.9001L19.55 11.9751L12.5 19.0251ZM9 3.5001C9.28333 3.5001 9.52083 3.40426 9.7125 3.2126C9.90417 3.02093 10 2.78343 10 2.5001C10 2.21676 9.90417 1.97926 9.7125 1.7876C9.52083 1.59593 9.28333 1.5001 9 1.5001C8.71667 1.5001 8.47917 1.59593 8.2875 1.7876C8.09583 1.97926 8 2.21676 8 2.5001C8 2.78343 8.09583 3.02093 8.2875 3.2126C8.47917 3.40426 8.71667 3.5001 9 3.5001Z" fill="#00115A"/>
</svg>
