<svg width="15" height="16" viewBox="0 0 15 16" fill="none" xmlns="http://www.w3.org/2000/svg">
<path d="M2.62504 10.4583V9.52075H0.333374V8.27075H4.91671V6.08325H0.979207C0.812541 6.08325 0.663235 6.02075 0.531291 5.89575C0.399346 5.77075 0.333374 5.61797 0.333374 5.43742V2.02075C0.333374 1.8402 0.395874 1.69089 0.520874 1.57284C0.645874 1.45478 0.791707 1.39575 0.958374 1.39575H2.62504V0.458252H3.87504V1.39575H6.16671V2.64575H1.58337V4.83325H5.52087C5.70143 4.83325 5.85421 4.89228 5.97921 5.01034C6.10421 5.12839 6.16671 5.28464 6.16671 5.47909V8.89575C6.16671 9.06242 6.10768 9.20825 5.98962 9.33325C5.87157 9.45825 5.72226 9.52075 5.54171 9.52075H3.87504V10.4583H2.62504ZM8.62504 15.4583L5.08337 11.9166L5.95837 11.0416L8.62504 13.7083L13.625 8.70825L14.5 9.58325L8.62504 15.4583Z" fill="#00115A"/>
</svg>
