<svg width="20" height="20" viewBox="0 0 20 20" fill="none" xmlns="http://www.w3.org/2000/svg">
<path d="M1 18.45V6.15C0.766667 6.11667 0.541667 5.95 0.325 5.65C0.108333 5.35 0 5.025 0 4.675V1.5C0 1.11667 0.15 0.770833 0.45 0.4625C0.75 0.154167 1.1 0 1.5 0H18.5C18.8833 0 19.2292 0.154167 19.5375 0.4625C19.8458 0.770833 20 1.11667 20 1.5V4.675C20 5.025 19.8917 5.35 19.675 5.65C19.4583 5.95 19.2333 6.11667 19 6.15V18.45C19 18.8333 18.8458 19.1875 18.5375 19.5125C18.2292 19.8375 17.8833 20 17.5 20H2.5C2.1 20 1.75 19.8375 1.45 19.5125C1.15 19.1875 1 18.8333 1 18.45ZM2.5 6.175V18.5H17.5V6.175H2.5ZM18.5 4.675V1.5H1.5V4.675H18.5ZM7 11.425H13V9.925H7V11.425ZM2.5 18.5V6.175V18.5Z" fill="#00115A"/>
</svg>
