<svg width="20" height="20" viewBox="0 0 20 20" fill="none" xmlns="http://www.w3.org/2000/svg">
<path d="M11.5 10C12.3167 10 13.0125 9.7125 13.5875 9.1375C14.1625 8.5625 14.45 7.86667 14.45 7.05C14.45 6.23333 14.1625 5.5375 13.5875 4.9625C13.0125 4.3875 12.3167 4.1 11.5 4.1C10.6833 4.1 9.9875 4.3875 9.4125 4.9625C8.8375 5.5375 8.55 6.23333 8.55 7.05C8.55 7.86667 8.8375 8.5625 9.4125 9.1375C9.9875 9.7125 10.6833 10 11.5 10ZM4.5 15.525C5.35 14.4417 6.38333 13.5833 7.6 12.95C8.81667 12.3167 10.1167 12 11.5 12C12.8833 12 14.1833 12.3167 15.4 12.95C16.6167 13.5833 17.65 14.4417 18.5 15.525V1.5H4.5V15.525ZM4.5 17C4.08333 17 3.72917 16.8542 3.4375 16.5625C3.14583 16.2708 3 15.9167 3 15.5V1.5C3 1.08333 3.14583 0.729167 3.4375 0.4375C3.72917 0.145833 4.08333 0 4.5 0H18.5C18.9167 0 19.2708 0.145833 19.5625 0.4375C19.8542 0.729167 20 1.08333 20 1.5V15.5C20 15.9167 19.8542 16.2708 19.5625 16.5625C19.2708 16.8542 18.9167 17 18.5 17H4.5ZM1.5 20C1.08333 20 0.729167 19.8542 0.4375 19.5625C0.145833 19.2708 0 18.9167 0 18.5V4.25H1.5V18.5H15.75V20H1.5ZM11.5 8.5C11.1 8.5 10.7583 8.35833 10.475 8.075C10.1917 7.79167 10.05 7.45 10.05 7.05C10.05 6.65 10.1917 6.30833 10.475 6.025C10.7583 5.74167 11.1 5.6 11.5 5.6C11.9 5.6 12.2417 5.74167 12.525 6.025C12.8083 6.30833 12.95 6.65 12.95 7.05C12.95 7.45 12.8083 7.79167 12.525 8.075C12.2417 8.35833 11.9 8.5 11.5 8.5ZM6.825 15.5H16.175C15.575 14.85 14.8708 14.3542 14.0625 14.0125C13.2542 13.6708 12.4 13.5 11.5 13.5C10.6 13.5 9.74583 13.6708 8.9375 14.0125C8.12917 14.3542 7.425 14.85 6.825 15.5Z" fill="#54DFFF"/>
</svg>
