<svg width="25" height="24" viewBox="0 0 25 24" fill="none" xmlns="http://www.w3.org/2000/svg">
<path d="M20.6849 8H17.6849V4H3.68494C2.58494 4 1.68494 4.9 1.68494 6V17H3.68494C3.68494 18.66 5.02494 20 6.68494 20C8.34494 20 9.68494 18.66 9.68494 17H15.6849C15.6849 18.66 17.0249 20 18.6849 20C20.3449 20 21.6849 18.66 21.6849 17H23.6849V12L20.6849 8ZM20.1849 9.5L22.1449 12H17.6849V9.5H20.1849ZM6.68494 18C6.13494 18 5.68494 17.55 5.68494 17C5.68494 16.45 6.13494 16 6.68494 16C7.23494 16 7.68494 16.45 7.68494 17C7.68494 17.55 7.23494 18 6.68494 18ZM8.90494 15C8.35494 14.39 7.57494 14 6.68494 14C5.79494 14 5.01494 14.39 4.46494 15H3.68494V6H15.6849V15H8.90494ZM18.6849 18C18.1349 18 17.6849 17.55 17.6849 17C17.6849 16.45 18.1349 16 18.6849 16C19.2349 16 19.6849 16.45 19.6849 17C19.6849 17.55 19.2349 18 18.6849 18Z" fill="#54DFFF"/>
</svg>
