<svg width="25" height="18" viewBox="0 0 25 18" fill="none" xmlns="http://www.w3.org/2000/svg">
<path d="M2.5 18C1.95 18 1.47933 17.8043 1.088 17.413C0.696 17.021 0.5 16.55 0.5 16V2C0.5 1.45 0.696 0.979 1.088 0.587C1.47933 0.195667 1.95 0 2.5 0H22.5C23.05 0 23.521 0.195667 23.913 0.587C24.3043 0.979 24.5 1.45 24.5 2V16C24.5 16.55 24.3043 17.021 23.913 17.413C23.521 17.8043 23.05 18 22.5 18H2.5ZM16.4 16H22.5V2H2.5V16H2.6C3.3 14.75 4.26667 13.7707 5.5 13.062C6.73333 12.354 8.06667 12 9.5 12C10.9333 12 12.2667 12.354 13.5 13.062C14.7333 13.7707 15.7 14.75 16.4 16ZM9.5 11C10.3333 11 11.0417 10.7083 11.625 10.125C12.2083 9.54167 12.5 8.83333 12.5 8C12.5 7.16667 12.2083 6.45833 11.625 5.875C11.0417 5.29167 10.3333 5 9.5 5C8.66667 5 7.95833 5.29167 7.375 5.875C6.79167 6.45833 6.5 7.16667 6.5 8C6.5 8.83333 6.79167 9.54167 7.375 10.125C7.95833 10.7083 8.66667 11 9.5 11ZM14.5 8H21.5V3H14.5V8ZM18 6.75L15.5 5V4L18 5.75L20.5 4V5L18 6.75ZM5.05 16H13.95C13.3833 15.3667 12.7127 14.875 11.938 14.525C11.1627 14.175 10.35 14 9.5 14C8.65 14 7.84167 14.175 7.075 14.525C6.30833 14.875 5.63333 15.3667 5.05 16ZM9.5 9C9.21667 9 8.97933 8.904 8.788 8.712C8.596 8.52067 8.5 8.28333 8.5 8C8.5 7.71667 8.596 7.479 8.788 7.287C8.97933 7.09567 9.21667 7 9.5 7C9.78333 7 10.021 7.09567 10.213 7.287C10.4043 7.479 10.5 7.71667 10.5 8C10.5 8.28333 10.4043 8.52067 10.213 8.712C10.021 8.904 9.78333 9 9.5 9Z" fill="#2E2E2E"/>
</svg>
