<svg width="22" height="20" viewBox="0 0 22 20" fill="none" xmlns="http://www.w3.org/2000/svg">
<path d="M16.8252 6.9L15.7252 4.55L13.3752 3.45L15.7252 2.35L16.8252 0L17.9252 2.35L20.2752 3.45L17.9252 4.55L16.8252 6.9ZM18.9252 14.125L18.1752 12.55L16.6002 11.8L18.1752 11.05L18.9252 9.475L19.6752 11.05L21.2502 11.8L19.6752 12.55L18.9252 14.125ZM5.85019 20L5.60019 17.7C5.36686 17.6667 5.1252 17.5917 4.8752 17.475C4.6252 17.3583 4.40853 17.2167 4.22519 17.05L2.2752 17.875L0.0751953 14.275L1.9752 13.025C1.89186 12.7417 1.8502 12.4917 1.8502 12.275C1.8502 12.0583 1.89186 11.8083 1.9752 11.525L0.0751953 10.275L2.2752 6.675L4.22519 7.5C4.40853 7.33333 4.6252 7.19167 4.8752 7.075C5.1252 6.95833 5.36686 6.88333 5.60019 6.85L5.85019 4.55H10.0502L10.3002 6.85C10.5335 6.88333 10.7752 6.95833 11.0252 7.075C11.2752 7.19167 11.4919 7.33333 11.6752 7.5L13.6252 6.675L15.8252 10.275L13.9252 11.525C14.0085 11.8083 14.0502 12.0583 14.0502 12.275C14.0502 12.4917 14.0085 12.7417 13.9252 13.025L15.8252 14.275L13.6252 17.875L11.6752 17.05C11.4919 17.2167 11.2752 17.3583 11.0252 17.475C10.7752 17.5917 10.5335 17.6667 10.3002 17.7L10.0502 20H5.85019ZM7.9502 15.15C8.78353 15.15 9.47103 14.8792 10.0127 14.3375C10.5544 13.7958 10.8252 13.1083 10.8252 12.275C10.8252 11.4417 10.5544 10.7542 10.0127 10.2125C9.47103 9.67083 8.78353 9.4 7.9502 9.4C7.11686 9.4 6.42936 9.67083 5.8877 10.2125C5.34603 10.7542 5.0752 11.4417 5.0752 12.275C5.0752 13.1083 5.34603 13.7958 5.8877 14.3375C6.42936 14.8792 7.11686 15.15 7.9502 15.15ZM7.9502 13.65C7.5502 13.65 7.22103 13.5208 6.9627 13.2625C6.70436 13.0042 6.5752 12.675 6.5752 12.275C6.5752 11.875 6.70436 11.5458 6.9627 11.2875C7.22103 11.0292 7.5502 10.9 7.9502 10.9C8.35019 10.9 8.67936 11.0292 8.9377 11.2875C9.19603 11.5458 9.3252 11.875 9.3252 12.275C9.3252 12.675 9.19603 13.0042 8.9377 13.2625C8.67936 13.5208 8.35019 13.65 7.9502 13.65ZM7.1002 18.5H8.8002L9.0002 16.6C9.48353 16.4833 9.9252 16.3167 10.3252 16.1C10.7252 15.8833 11.0919 15.6 11.4252 15.25L13.0502 15.975L13.8752 14.675L12.3252 13.575C12.5085 13.1583 12.6002 12.725 12.6002 12.275C12.6002 11.825 12.5085 11.3917 12.3252 10.975L13.8752 9.875L13.0502 8.575L11.4252 9.3C11.0919 8.95 10.7252 8.66667 10.3252 8.45C9.9252 8.23333 9.48353 8.06667 9.0002 7.95L8.8002 6.05H7.1002L6.9002 7.95C6.41686 8.06667 5.9752 8.23333 5.5752 8.45C5.1752 8.66667 4.80853 8.95 4.47519 9.3L2.8502 8.575L2.0252 9.875L3.5752 10.975C3.39186 11.3917 3.3002 11.825 3.3002 12.275C3.3002 12.725 3.39186 13.1583 3.5752 13.575L2.0252 14.675L2.8502 15.975L4.47519 15.25C4.80853 15.6 5.1752 15.8833 5.5752 16.1C5.9752 16.3167 6.41686 16.4833 6.9002 16.6L7.1002 18.5Z" fill="#54DFFF"/>
</svg>
